<svg width="1355" height="972" viewBox="0 0 1355 972" fill="none" xmlns="http://www.w3.org/2000/svg">
<g clip-path="url(#clip0)">
<g filter="url(#filter0_d)">
<path fill-rule="evenodd" clip-rule="evenodd" d="M17.3221 59.5882C23.9957 -1.6149 112.721 17.322 305.289 10.5431C497.857 3.76429 600.569 6.53877 699.361 6.68218C747.546 6.75213 890.539 12.6416 935.476 13.4701C980.413 14.2986 1047.57 15.6007 1134.56 14.4737C1171.4 13.9965 1276.43 9.47666 1320.05 7.54776C1330.51 7.08509 1339.15 15.5895 1338.85 26.0594C1337.87 60.7477 1335.94 132.203 1335.94 157.623C1335.94 358.008 1342.31 801.782 1342.31 843.524C1342.31 864.486 1347.62 899.935 1339.41 918.812C1322.63 957.422 1267.85 943.444 1078.34 947.591C888.834 951.738 794.04 956.586 679.445 957.422C566.397 958.247 462.996 958.136 380.417 957.422C130.985 955.264 97.5409 956.232 49.7869 947.591C2.03292 938.951 9.41116 880.614 9.41116 880.614C9.41116 880.614 17.6574 426.155 17.3221 350.631C16.9869 275.106 18.2149 353.867 17.3221 246.778C16.4294 139.689 14.7266 83.3921 17.3221 59.5882Z" fill="#68D5AF"/>
<path fill-rule="evenodd" clip-rule="evenodd" d="M32.4404 53.2778C32.4404 22.9485 79.0231 22.9485 95.1498 21.7832C149.983 17.8211 236.587 24.5102 315.497 21.7832C502.965 15.3046 600.246 19.4915 696.422 19.6286C792.599 19.7657 881.09 20.6601 929.347 21.7832C1021.69 23.9323 1238.56 20.8875 1302.38 19.9119C1312.33 19.7597 1320.45 27.71 1320.6 37.665L1331.42 784.209C1331.42 784.209 1331.42 840.038 1326.64 901.011C1326.33 904.96 1324.72 908.701 1322.16 911.725C1312.46 923.191 1301.9 934.332 1243.39 934.564C1177 934.827 1147.87 934.564 1047.13 934.564C946.386 934.564 790.876 940.851 679.316 941.65C569.262 942.439 463.147 942.333 382.755 941.65C191.796 940.029 84.5343 928.334 47.4244 923.411C38.7283 922.258 32.4404 915.341 32.4404 906.569C32.4404 794.793 32.4404 81.2281 32.4404 53.2778Z" fill="#41CC89"/>
<path opacity="0.526507" fill-rule="evenodd" clip-rule="evenodd" d="M299.524 546.793C295.826 531.799 290.516 581.487 314.735 588.074C338.953 594.661 365.088 588.074 365.088 588.074C365.088 588.074 303.223 561.786 299.524 546.793Z" fill="#24808F"/>
<path opacity="0.526507" fill-rule="evenodd" clip-rule="evenodd" d="M1106.95 546.793C1112.4 531.799 1120.23 581.487 1084.53 588.074C1048.84 594.661 1010.32 588.074 1010.32 588.074C1010.32 588.074 1101.5 561.786 1106.95 546.793Z" fill="#24808F"/>
<g filter="url(#filter1_di)">
<path fill-rule="evenodd" clip-rule="evenodd" d="M44.6842 46.5105C44.9268 36.7552 52.8822 29.4419 62.6404 29.3926C97.0837 29.2188 181.33 28.5276 306.764 25.7796C492.745 16.0366 576.411 24.1112 671.824 24.3173C718.361 24.4178 922.385 27.762 970.259 29.451C1059.89 32.6134 1235.11 28.0008 1292.19 26.3379C1302.35 26.0419 1310.64 33.8566 1310.64 44.0248C1310.64 167.417 1310.64 875.717 1310.64 902.511C1310.64 931.866 1046.28 918.758 1046.28 918.758C1046.28 918.758 782.499 929.055 671.824 930.257C562.643 931.443 464.203 931.284 384.449 930.257C143.548 927.156 67.6695 922.048 45.1159 908.129C24.4438 895.371 41.6667 167.815 44.6842 46.5105Z" fill="#53E28C"/>
</g>
<path opacity="0.526507" fill-rule="evenodd" clip-rule="evenodd" d="M26.4771 903.661C22.7787 888.667 18.1342 926.432 42.3527 933.018C66.5712 939.605 64.7224 933.018 64.7224 933.018C64.7224 933.018 30.1755 918.655 26.4771 903.661Z" fill="white"/>
<path opacity="0.526507" fill-rule="evenodd" clip-rule="evenodd" d="M1329.01 903.661C1332.71 888.667 1337.35 926.432 1313.13 933.018C1288.91 939.605 1290.76 933.018 1290.76 933.018C1290.76 933.018 1325.31 918.655 1329.01 903.661Z" fill="white"/>
</g>
</g>
<defs>
<filter id="filter0_d" x="-1" y="0" width="1355" height="972" filterUnits="userSpaceOnUse" color-interpolation-filters="sRGB">
<feFlood flood-opacity="0" result="BackgroundImageFix"/>
<feColorMatrix in="SourceAlpha" type="matrix" values="0 0 0 0 0 0 0 0 0 0 0 0 0 0 0 0 0 0 127 0"/>
<feOffset dy="4"/>
<feGaussianBlur stdDeviation="5"/>
<feColorMatrix type="matrix" values="0 0 0 0 0 0 0 0 0 0 0 0 0 0 0 0 0 0 0.25 0"/>
<feBlend mode="normal" in2="BackgroundImageFix" result="effect1_dropShadow"/>
<feBlend mode="normal" in="SourceGraphic" in2="effect1_dropShadow" result="shape"/>
</filter>
<filter id="filter1_di" x="25.092" y="12.981" width="1295.55" height="930.107" filterUnits="userSpaceOnUse" color-interpolation-filters="sRGB">
<feFlood flood-opacity="0" result="BackgroundImageFix"/>
<feColorMatrix in="SourceAlpha" type="matrix" values="0 0 0 0 0 0 0 0 0 0 0 0 0 0 0 0 0 0 127 0"/>
<feOffset dy="2"/>
<feGaussianBlur stdDeviation="5"/>
<feColorMatrix type="matrix" values="0 0 0 0 0.0313725 0 0 0 0 0.392157 0 0 0 0 0.509804 0 0 0 0.69 0"/>
<feBlend mode="normal" in2="BackgroundImageFix" result="effect1_dropShadow"/>
<feBlend mode="normal" in="SourceGraphic" in2="effect1_dropShadow" result="shape"/>
<feColorMatrix in="SourceAlpha" type="matrix" values="0 0 0 0 0 0 0 0 0 0 0 0 0 0 0 0 0 0 127 0" result="hardAlpha"/>
<feOffset dy="4"/>
<feComposite in2="hardAlpha" operator="arithmetic" k2="-1" k3="1"/>
<feColorMatrix type="matrix" values="0 0 0 0 1 0 0 0 0 1 0 0 0 0 1 0 0 0 0.302649 0"/>
<feBlend mode="normal" in2="shape" result="effect2_innerShadow"/>
</filter>
<clipPath id="clip0">
<rect width="1355" height="972" fill="white"/>
</clipPath>
</defs>
</svg>
