<svg width="262" height="170" viewBox="0 0 262 170" fill="none" xmlns="http://www.w3.org/2000/svg">
<path fill-rule="evenodd" clip-rule="evenodd" d="M1 10.0695C1 1.37008 14.4565 1.37008 17.6921 1.03584C28.6935 -0.100611 41.9585 1.81803 57.7904 1.03584C95.4025 -0.822428 114.92 0.378525 134.216 0.417839C153.512 0.457153 171.267 0.713692 180.949 1.03584C194.81 1.49706 222.658 1.1243 241.166 0.790129C251.201 0.60894 259.479 8.59003 259.598 18.6261C259.953 48.5272 260.731 106.528 261.618 124.682C262.676 146.343 261.276 158.804 260.56 159.931C258.211 163.629 257.276 166.253 243.956 166.328C230.635 166.404 244.062 165.497 204.579 167.809C165.096 170.121 153.167 169.612 130.784 169.842C108.704 170.068 87.4137 170.037 71.2844 169.842C44.7316 169.519 26.2447 167.809 14.9189 166.319C6.69269 165.237 1 158.182 1 149.885C1 113.193 1 17.0964 1 10.0695Z" fill="#32AB85"/>
</svg>
